<mxfile host="app.diagrams.net" agent="Mozilla/5.0 (Windows NT 10.0; Win64; x64) AppleWebKit/537.36 (KHTML, like Gecko) Chrome/136.0.0.0 Safari/537.36 Edg/136.0.0.0" version="26.2.14">
  <diagram name="Page-1" id="HE_2p1YUsy-ikwvFGUG5">
    <mxGraphModel dx="1034" dy="570" grid="1" gridSize="10" guides="1" tooltips="1" connect="1" arrows="1" fold="1" page="1" pageScale="1" pageWidth="850" pageHeight="1100" math="0" shadow="0">
      <root>
        <mxCell id="0" />
        <mxCell id="1" parent="0" />
        <mxCell id="2cgwsK3_psXN7KSWmYCk-205" value="" style="group" parent="1" vertex="1" connectable="0">
          <mxGeometry y="600" width="480" height="410" as="geometry" />
        </mxCell>
        <mxCell id="2cgwsK3_psXN7KSWmYCk-171" value="" style="rounded=0;whiteSpace=wrap;html=1;" parent="2cgwsK3_psXN7KSWmYCk-205" vertex="1">
          <mxGeometry width="480" height="410" as="geometry" />
        </mxCell>
        <mxCell id="2cgwsK3_psXN7KSWmYCk-156" value="cart" style="swimlane;fontStyle=0;childLayout=stackLayout;horizontal=1;startSize=26;fillColor=none;horizontalStack=0;resizeParent=1;resizeParentMax=0;resizeLast=0;collapsible=1;marginBottom=0;whiteSpace=wrap;html=1;" parent="2cgwsK3_psXN7KSWmYCk-205" vertex="1">
          <mxGeometry x="80" y="110" width="140" height="104" as="geometry" />
        </mxCell>
        <mxCell id="2cgwsK3_psXN7KSWmYCk-157" value="id" style="text;strokeColor=none;fillColor=none;align=left;verticalAlign=top;spacingLeft=4;spacingRight=4;overflow=hidden;rotatable=0;points=[[0,0.5],[1,0.5]];portConstraint=eastwest;whiteSpace=wrap;html=1;" parent="2cgwsK3_psXN7KSWmYCk-156" vertex="1">
          <mxGeometry y="26" width="140" height="26" as="geometry" />
        </mxCell>
        <mxCell id="2cgwsK3_psXN7KSWmYCk-158" value="productDetail" style="text;strokeColor=none;fillColor=none;align=left;verticalAlign=top;spacingLeft=4;spacingRight=4;overflow=hidden;rotatable=0;points=[[0,0.5],[1,0.5]];portConstraint=eastwest;whiteSpace=wrap;html=1;" parent="2cgwsK3_psXN7KSWmYCk-156" vertex="1">
          <mxGeometry y="52" width="140" height="26" as="geometry" />
        </mxCell>
        <mxCell id="2cgwsK3_psXN7KSWmYCk-159" value="userId" style="text;strokeColor=none;fillColor=none;align=left;verticalAlign=top;spacingLeft=4;spacingRight=4;overflow=hidden;rotatable=0;points=[[0,0.5],[1,0.5]];portConstraint=eastwest;whiteSpace=wrap;html=1;" parent="2cgwsK3_psXN7KSWmYCk-156" vertex="1">
          <mxGeometry y="78" width="140" height="26" as="geometry" />
        </mxCell>
        <mxCell id="2cgwsK3_psXN7KSWmYCk-160" value="productdetail" style="swimlane;fontStyle=0;childLayout=stackLayout;horizontal=1;startSize=26;fillColor=none;horizontalStack=0;resizeParent=1;resizeParentMax=0;resizeLast=0;collapsible=1;marginBottom=0;whiteSpace=wrap;html=1;" parent="2cgwsK3_psXN7KSWmYCk-205" vertex="1">
          <mxGeometry x="290" y="110" width="140" height="130" as="geometry" />
        </mxCell>
        <mxCell id="2cgwsK3_psXN7KSWmYCk-161" value="id" style="text;strokeColor=none;fillColor=none;align=left;verticalAlign=top;spacingLeft=4;spacingRight=4;overflow=hidden;rotatable=0;points=[[0,0.5],[1,0.5]];portConstraint=eastwest;whiteSpace=wrap;html=1;" parent="2cgwsK3_psXN7KSWmYCk-160" vertex="1">
          <mxGeometry y="26" width="140" height="26" as="geometry" />
        </mxCell>
        <mxCell id="2cgwsK3_psXN7KSWmYCk-162" value="cartId" style="text;strokeColor=none;fillColor=none;align=left;verticalAlign=top;spacingLeft=4;spacingRight=4;overflow=hidden;rotatable=0;points=[[0,0.5],[1,0.5]];portConstraint=eastwest;whiteSpace=wrap;html=1;" parent="2cgwsK3_psXN7KSWmYCk-160" vertex="1">
          <mxGeometry y="52" width="140" height="26" as="geometry" />
        </mxCell>
        <mxCell id="2cgwsK3_psXN7KSWmYCk-275" value="modelId" style="text;strokeColor=none;fillColor=none;align=left;verticalAlign=top;spacingLeft=4;spacingRight=4;overflow=hidden;rotatable=0;points=[[0,0.5],[1,0.5]];portConstraint=eastwest;whiteSpace=wrap;html=1;" parent="2cgwsK3_psXN7KSWmYCk-160" vertex="1">
          <mxGeometry y="78" width="140" height="26" as="geometry" />
        </mxCell>
        <mxCell id="2cgwsK3_psXN7KSWmYCk-276" value="quantity" style="text;strokeColor=none;fillColor=none;align=left;verticalAlign=top;spacingLeft=4;spacingRight=4;overflow=hidden;rotatable=0;points=[[0,0.5],[1,0.5]];portConstraint=eastwest;whiteSpace=wrap;html=1;" parent="2cgwsK3_psXN7KSWmYCk-160" vertex="1">
          <mxGeometry y="104" width="140" height="26" as="geometry" />
        </mxCell>
        <mxCell id="2cgwsK3_psXN7KSWmYCk-164" value="wanted" style="swimlane;fontStyle=0;childLayout=stackLayout;horizontal=1;startSize=26;fillColor=none;horizontalStack=0;resizeParent=1;resizeParentMax=0;resizeLast=0;collapsible=1;marginBottom=0;whiteSpace=wrap;html=1;" parent="2cgwsK3_psXN7KSWmYCk-205" vertex="1">
          <mxGeometry x="80" y="260" width="140" height="104" as="geometry" />
        </mxCell>
        <mxCell id="2cgwsK3_psXN7KSWmYCk-165" value="id" style="text;strokeColor=none;fillColor=none;align=left;verticalAlign=top;spacingLeft=4;spacingRight=4;overflow=hidden;rotatable=0;points=[[0,0.5],[1,0.5]];portConstraint=eastwest;whiteSpace=wrap;html=1;" parent="2cgwsK3_psXN7KSWmYCk-164" vertex="1">
          <mxGeometry y="26" width="140" height="26" as="geometry" />
        </mxCell>
        <mxCell id="2cgwsK3_psXN7KSWmYCk-166" value="productId" style="text;strokeColor=none;fillColor=none;align=left;verticalAlign=top;spacingLeft=4;spacingRight=4;overflow=hidden;rotatable=0;points=[[0,0.5],[1,0.5]];portConstraint=eastwest;whiteSpace=wrap;html=1;" parent="2cgwsK3_psXN7KSWmYCk-164" vertex="1">
          <mxGeometry y="52" width="140" height="26" as="geometry" />
        </mxCell>
        <mxCell id="2cgwsK3_psXN7KSWmYCk-167" value="userId" style="text;strokeColor=none;fillColor=none;align=left;verticalAlign=top;spacingLeft=4;spacingRight=4;overflow=hidden;rotatable=0;points=[[0,0.5],[1,0.5]];portConstraint=eastwest;whiteSpace=wrap;html=1;" parent="2cgwsK3_psXN7KSWmYCk-164" vertex="1">
          <mxGeometry y="78" width="140" height="26" as="geometry" />
        </mxCell>
        <mxCell id="2cgwsK3_psXN7KSWmYCk-168" value="" style="edgeStyle=entityRelationEdgeStyle;fontSize=12;html=1;endArrow=ERoneToMany;startArrow=ERmandOne;rounded=0;entryX=0;entryY=0.5;entryDx=0;entryDy=0;exitX=1;exitY=0.5;exitDx=0;exitDy=0;" parent="2cgwsK3_psXN7KSWmYCk-205" source="2cgwsK3_psXN7KSWmYCk-157" target="2cgwsK3_psXN7KSWmYCk-162" edge="1">
          <mxGeometry width="100" height="100" relative="1" as="geometry">
            <mxPoint x="560" y="170" as="sourcePoint" />
            <mxPoint x="660" y="70" as="targetPoint" />
          </mxGeometry>
        </mxCell>
        <mxCell id="2cgwsK3_psXN7KSWmYCk-173" value="&lt;b&gt;&lt;font style=&quot;font-size: 18px;&quot;&gt;Cart&lt;/font&gt;&lt;/b&gt;" style="text;strokeColor=none;fillColor=none;spacingLeft=4;spacingRight=4;overflow=hidden;rotatable=0;points=[[0,0.5],[1,0.5]];portConstraint=eastwest;fontSize=12;whiteSpace=wrap;html=1;" parent="2cgwsK3_psXN7KSWmYCk-205" vertex="1">
          <mxGeometry x="40" y="30" width="90" height="40" as="geometry" />
        </mxCell>
        <mxCell id="2cgwsK3_psXN7KSWmYCk-237" value="" style="rounded=0;whiteSpace=wrap;html=1;container=1;" parent="1" vertex="1">
          <mxGeometry x="490" y="600" width="460" height="440" as="geometry" />
        </mxCell>
        <mxCell id="2cgwsK3_psXN7KSWmYCk-206" value="stock" style="swimlane;fontStyle=0;childLayout=stackLayout;horizontal=1;startSize=26;horizontalStack=0;resizeParent=1;resizeParentMax=0;resizeLast=0;collapsible=1;marginBottom=0;align=center;fontSize=14;" parent="1" vertex="1">
          <mxGeometry x="530" y="730" width="160" height="142" as="geometry" />
        </mxCell>
        <mxCell id="2cgwsK3_psXN7KSWmYCk-207" value="id" style="text;strokeColor=none;fillColor=none;spacingLeft=4;spacingRight=4;overflow=hidden;rotatable=0;points=[[0,0.5],[1,0.5]];portConstraint=eastwest;fontSize=12;whiteSpace=wrap;html=1;" parent="2cgwsK3_psXN7KSWmYCk-206" vertex="1">
          <mxGeometry y="26" width="160" height="26" as="geometry" />
        </mxCell>
        <mxCell id="2cgwsK3_psXN7KSWmYCk-208" value="modelId" style="text;strokeColor=none;fillColor=none;spacingLeft=4;spacingRight=4;overflow=hidden;rotatable=0;points=[[0,0.5],[1,0.5]];portConstraint=eastwest;fontSize=12;whiteSpace=wrap;html=1;" parent="2cgwsK3_psXN7KSWmYCk-206" vertex="1">
          <mxGeometry y="52" width="160" height="30" as="geometry" />
        </mxCell>
        <mxCell id="2cgwsK3_psXN7KSWmYCk-209" value="quantity" style="text;strokeColor=none;fillColor=none;spacingLeft=4;spacingRight=4;overflow=hidden;rotatable=0;points=[[0,0.5],[1,0.5]];portConstraint=eastwest;fontSize=12;whiteSpace=wrap;html=1;" parent="2cgwsK3_psXN7KSWmYCk-206" vertex="1">
          <mxGeometry y="82" width="160" height="30" as="geometry" />
        </mxCell>
        <mxCell id="2cgwsK3_psXN7KSWmYCk-211" value="warehouseId" style="text;strokeColor=none;fillColor=none;spacingLeft=4;spacingRight=4;overflow=hidden;rotatable=0;points=[[0,0.5],[1,0.5]];portConstraint=eastwest;fontSize=12;whiteSpace=wrap;html=1;" parent="2cgwsK3_psXN7KSWmYCk-206" vertex="1">
          <mxGeometry y="112" width="160" height="30" as="geometry" />
        </mxCell>
        <mxCell id="2cgwsK3_psXN7KSWmYCk-213" value="warehouse" style="swimlane;fontStyle=0;childLayout=stackLayout;horizontal=1;startSize=26;horizontalStack=0;resizeParent=1;resizeParentMax=0;resizeLast=0;collapsible=1;marginBottom=0;align=center;fontSize=14;" parent="1" vertex="1">
          <mxGeometry x="770" y="816" width="160" height="176" as="geometry" />
        </mxCell>
        <mxCell id="2cgwsK3_psXN7KSWmYCk-214" value="id" style="text;strokeColor=none;fillColor=none;spacingLeft=4;spacingRight=4;overflow=hidden;rotatable=0;points=[[0,0.5],[1,0.5]];portConstraint=eastwest;fontSize=12;whiteSpace=wrap;html=1;" parent="2cgwsK3_psXN7KSWmYCk-213" vertex="1">
          <mxGeometry y="26" width="160" height="30" as="geometry" />
        </mxCell>
        <mxCell id="2cgwsK3_psXN7KSWmYCk-215" value="localization" style="text;strokeColor=none;fillColor=none;spacingLeft=4;spacingRight=4;overflow=hidden;rotatable=0;points=[[0,0.5],[1,0.5]];portConstraint=eastwest;fontSize=12;whiteSpace=wrap;html=1;" parent="2cgwsK3_psXN7KSWmYCk-213" vertex="1">
          <mxGeometry y="56" width="160" height="30" as="geometry" />
        </mxCell>
        <mxCell id="2cgwsK3_psXN7KSWmYCk-216" value="phoneNumber" style="text;strokeColor=none;fillColor=none;spacingLeft=4;spacingRight=4;overflow=hidden;rotatable=0;points=[[0,0.5],[1,0.5]];portConstraint=eastwest;fontSize=12;whiteSpace=wrap;html=1;" parent="2cgwsK3_psXN7KSWmYCk-213" vertex="1">
          <mxGeometry y="86" width="160" height="30" as="geometry" />
        </mxCell>
        <mxCell id="2cgwsK3_psXN7KSWmYCk-217" value="description" style="text;strokeColor=none;fillColor=none;spacingLeft=4;spacingRight=4;overflow=hidden;rotatable=0;points=[[0,0.5],[1,0.5]];portConstraint=eastwest;fontSize=12;whiteSpace=wrap;html=1;" parent="2cgwsK3_psXN7KSWmYCk-213" vertex="1">
          <mxGeometry y="116" width="160" height="30" as="geometry" />
        </mxCell>
        <mxCell id="2cgwsK3_psXN7KSWmYCk-218" value="email" style="text;strokeColor=none;fillColor=none;spacingLeft=4;spacingRight=4;overflow=hidden;rotatable=0;points=[[0,0.5],[1,0.5]];portConstraint=eastwest;fontSize=12;whiteSpace=wrap;html=1;" parent="2cgwsK3_psXN7KSWmYCk-213" vertex="1">
          <mxGeometry y="146" width="160" height="30" as="geometry" />
        </mxCell>
        <mxCell id="2cgwsK3_psXN7KSWmYCk-233" value="" style="edgeStyle=entityRelationEdgeStyle;fontSize=12;html=1;endArrow=ERzeroToMany;startArrow=ERmandOne;rounded=0;entryX=1;entryY=0.5;entryDx=0;entryDy=0;exitX=0;exitY=0.5;exitDx=0;exitDy=0;" parent="1" source="2cgwsK3_psXN7KSWmYCk-214" target="2cgwsK3_psXN7KSWmYCk-211" edge="1">
          <mxGeometry width="100" height="100" relative="1" as="geometry">
            <mxPoint x="1040" y="800" as="sourcePoint" />
            <mxPoint x="1140" y="700" as="targetPoint" />
          </mxGeometry>
        </mxCell>
        <mxCell id="2cgwsK3_psXN7KSWmYCk-236" value="&lt;span style=&quot;font-size: 18px;&quot;&gt;&lt;b&gt;Inventory&lt;/b&gt;&lt;/span&gt;" style="text;strokeColor=none;fillColor=none;spacingLeft=4;spacingRight=4;overflow=hidden;rotatable=0;points=[[0,0.5],[1,0.5]];portConstraint=eastwest;fontSize=12;whiteSpace=wrap;html=1;" parent="1" vertex="1">
          <mxGeometry x="530" y="630" width="90" height="40" as="geometry" />
        </mxCell>
        <mxCell id="2cgwsK3_psXN7KSWmYCk-239" value="&lt;p style=&quot;margin:0px;margin-top:4px;text-align:center;text-decoration:underline;&quot;&gt;&lt;b&gt;Object:CartDto&lt;/b&gt;&lt;/p&gt;&lt;hr size=&quot;1&quot; style=&quot;border-style:solid;&quot;&gt;&lt;p style=&quot;margin:0px;margin-left:8px;&quot;&gt;Long cartId&lt;/p&gt;&lt;p style=&quot;margin:0px;margin-left:8px;&quot;&gt;String userId&lt;br&gt;List&amp;lt;productDetails&amp;gt; productDetails&amp;nbsp;&lt;br&gt;&amp;nbsp;&lt;/p&gt;" style="verticalAlign=top;align=left;overflow=fill;html=1;whiteSpace=wrap;fillColor=#f5f5f5;fontColor=#333333;strokeColor=#666666;" parent="1" vertex="1">
          <mxGeometry x="710" y="620" width="220" height="90" as="geometry" />
        </mxCell>
        <mxCell id="2cgwsK3_psXN7KSWmYCk-306" value="" style="group" parent="1" vertex="1" connectable="0">
          <mxGeometry x="960" y="600" width="540" height="390" as="geometry" />
        </mxCell>
        <mxCell id="2cgwsK3_psXN7KSWmYCk-260" value="" style="rounded=0;whiteSpace=wrap;html=1;container=1;" parent="2cgwsK3_psXN7KSWmYCk-306" vertex="1">
          <mxGeometry width="540" height="390" as="geometry" />
        </mxCell>
        <mxCell id="2cgwsK3_psXN7KSWmYCk-202" value="&lt;b&gt;&lt;font style=&quot;font-size: 18px;&quot;&gt;Delivery&lt;/font&gt;&lt;/b&gt;" style="text;strokeColor=none;fillColor=none;spacingLeft=4;spacingRight=4;overflow=hidden;rotatable=0;points=[[0,0.5],[1,0.5]];portConstraint=eastwest;fontSize=12;whiteSpace=wrap;html=1;" parent="2cgwsK3_psXN7KSWmYCk-306" vertex="1">
          <mxGeometry x="50" y="30" width="90" height="40" as="geometry" />
        </mxCell>
        <mxCell id="2cgwsK3_psXN7KSWmYCk-240" value="delivery" style="swimlane;fontStyle=0;childLayout=stackLayout;horizontal=1;startSize=26;horizontalStack=0;resizeParent=1;resizeParentMax=0;resizeLast=0;collapsible=1;marginBottom=0;align=center;fontSize=14;" parent="2cgwsK3_psXN7KSWmYCk-306" vertex="1">
          <mxGeometry x="80" y="87" width="160" height="266" as="geometry" />
        </mxCell>
        <mxCell id="2cgwsK3_psXN7KSWmYCk-241" value="id" style="text;strokeColor=none;fillColor=none;spacingLeft=4;spacingRight=4;overflow=hidden;rotatable=0;points=[[0,0.5],[1,0.5]];portConstraint=eastwest;fontSize=12;whiteSpace=wrap;html=1;" parent="2cgwsK3_psXN7KSWmYCk-240" vertex="1">
          <mxGeometry y="26" width="160" height="30" as="geometry" />
        </mxCell>
        <mxCell id="2cgwsK3_psXN7KSWmYCk-247" value="billId" style="text;strokeColor=none;fillColor=none;spacingLeft=4;spacingRight=4;overflow=hidden;rotatable=0;points=[[0,0.5],[1,0.5]];portConstraint=eastwest;fontSize=12;whiteSpace=wrap;html=1;" parent="2cgwsK3_psXN7KSWmYCk-240" vertex="1">
          <mxGeometry y="56" width="160" height="30" as="geometry" />
        </mxCell>
        <mxCell id="2cgwsK3_psXN7KSWmYCk-246" value="state" style="text;strokeColor=none;fillColor=none;spacingLeft=4;spacingRight=4;overflow=hidden;rotatable=0;points=[[0,0.5],[1,0.5]];portConstraint=eastwest;fontSize=12;whiteSpace=wrap;html=1;" parent="2cgwsK3_psXN7KSWmYCk-240" vertex="1">
          <mxGeometry y="86" width="160" height="30" as="geometry" />
        </mxCell>
        <mxCell id="2cgwsK3_psXN7KSWmYCk-245" value="delivererId" style="text;strokeColor=none;fillColor=none;spacingLeft=4;spacingRight=4;overflow=hidden;rotatable=0;points=[[0,0.5],[1,0.5]];portConstraint=eastwest;fontSize=12;whiteSpace=wrap;html=1;" parent="2cgwsK3_psXN7KSWmYCk-240" vertex="1">
          <mxGeometry y="116" width="160" height="30" as="geometry" />
        </mxCell>
        <mxCell id="2cgwsK3_psXN7KSWmYCk-244" value="departureDate" style="text;strokeColor=none;fillColor=none;spacingLeft=4;spacingRight=4;overflow=hidden;rotatable=0;points=[[0,0.5],[1,0.5]];portConstraint=eastwest;fontSize=12;whiteSpace=wrap;html=1;" parent="2cgwsK3_psXN7KSWmYCk-240" vertex="1">
          <mxGeometry y="146" width="160" height="30" as="geometry" />
        </mxCell>
        <mxCell id="2cgwsK3_psXN7KSWmYCk-242" value="expectedDeliveryDate" style="text;strokeColor=none;fillColor=none;spacingLeft=4;spacingRight=4;overflow=hidden;rotatable=0;points=[[0,0.5],[1,0.5]];portConstraint=eastwest;fontSize=12;whiteSpace=wrap;html=1;" parent="2cgwsK3_psXN7KSWmYCk-240" vertex="1">
          <mxGeometry y="176" width="160" height="30" as="geometry" />
        </mxCell>
        <mxCell id="2cgwsK3_psXN7KSWmYCk-243" value="actualDeliveryDate" style="text;strokeColor=none;fillColor=none;spacingLeft=4;spacingRight=4;overflow=hidden;rotatable=0;points=[[0,0.5],[1,0.5]];portConstraint=eastwest;fontSize=12;whiteSpace=wrap;html=1;" parent="2cgwsK3_psXN7KSWmYCk-240" vertex="1">
          <mxGeometry y="206" width="160" height="30" as="geometry" />
        </mxCell>
        <mxCell id="2cgwsK3_psXN7KSWmYCk-248" value="deliveryType" style="text;strokeColor=none;fillColor=none;spacingLeft=4;spacingRight=4;overflow=hidden;rotatable=0;points=[[0,0.5],[1,0.5]];portConstraint=eastwest;fontSize=12;whiteSpace=wrap;html=1;" parent="2cgwsK3_psXN7KSWmYCk-240" vertex="1">
          <mxGeometry y="236" width="160" height="30" as="geometry" />
        </mxCell>
        <mxCell id="2cgwsK3_psXN7KSWmYCk-249" value="deliverer" style="swimlane;fontStyle=0;childLayout=stackLayout;horizontal=1;startSize=26;horizontalStack=0;resizeParent=1;resizeParentMax=0;resizeLast=0;collapsible=1;marginBottom=0;align=center;fontSize=14;" parent="2cgwsK3_psXN7KSWmYCk-306" vertex="1">
          <mxGeometry x="330" y="177" width="160" height="176" as="geometry" />
        </mxCell>
        <mxCell id="2cgwsK3_psXN7KSWmYCk-250" value="id" style="text;strokeColor=none;fillColor=none;spacingLeft=4;spacingRight=4;overflow=hidden;rotatable=0;points=[[0,0.5],[1,0.5]];portConstraint=eastwest;fontSize=12;whiteSpace=wrap;html=1;" parent="2cgwsK3_psXN7KSWmYCk-249" vertex="1">
          <mxGeometry y="26" width="160" height="30" as="geometry" />
        </mxCell>
        <mxCell id="2cgwsK3_psXN7KSWmYCk-251" value="name" style="text;strokeColor=none;fillColor=none;spacingLeft=4;spacingRight=4;overflow=hidden;rotatable=0;points=[[0,0.5],[1,0.5]];portConstraint=eastwest;fontSize=12;whiteSpace=wrap;html=1;" parent="2cgwsK3_psXN7KSWmYCk-249" vertex="1">
          <mxGeometry y="56" width="160" height="30" as="geometry" />
        </mxCell>
        <mxCell id="2cgwsK3_psXN7KSWmYCk-252" value="surname" style="text;strokeColor=none;fillColor=none;spacingLeft=4;spacingRight=4;overflow=hidden;rotatable=0;points=[[0,0.5],[1,0.5]];portConstraint=eastwest;fontSize=12;whiteSpace=wrap;html=1;" parent="2cgwsK3_psXN7KSWmYCk-249" vertex="1">
          <mxGeometry y="86" width="160" height="30" as="geometry" />
        </mxCell>
        <mxCell id="2cgwsK3_psXN7KSWmYCk-253" value="phoneNumber" style="text;strokeColor=none;fillColor=none;spacingLeft=4;spacingRight=4;overflow=hidden;rotatable=0;points=[[0,0.5],[1,0.5]];portConstraint=eastwest;fontSize=12;whiteSpace=wrap;html=1;" parent="2cgwsK3_psXN7KSWmYCk-249" vertex="1">
          <mxGeometry y="116" width="160" height="30" as="geometry" />
        </mxCell>
        <mxCell id="2cgwsK3_psXN7KSWmYCk-254" value="company" style="text;strokeColor=none;fillColor=none;spacingLeft=4;spacingRight=4;overflow=hidden;rotatable=0;points=[[0,0.5],[1,0.5]];portConstraint=eastwest;fontSize=12;whiteSpace=wrap;html=1;" parent="2cgwsK3_psXN7KSWmYCk-249" vertex="1">
          <mxGeometry y="146" width="160" height="30" as="geometry" />
        </mxCell>
        <mxCell id="2cgwsK3_psXN7KSWmYCk-258" value="&lt;p style=&quot;margin:0px;margin-top:4px;text-align:center;text-decoration:underline;&quot;&gt;&lt;b&gt;Object:BillDto&lt;/b&gt;&lt;/p&gt;&lt;hr size=&quot;1&quot; style=&quot;border-style:solid;&quot;&gt;&lt;p style=&quot;margin:0px;margin-left:8px;&quot;&gt;Long billId&lt;/p&gt;&lt;p style=&quot;margin:0px;margin-left:8px;&quot;&gt;&amp;nbsp;&lt;/p&gt;" style="verticalAlign=top;align=left;overflow=fill;html=1;whiteSpace=wrap;fillColor=#f5f5f5;fontColor=#333333;strokeColor=#666666;" parent="2cgwsK3_psXN7KSWmYCk-306" vertex="1">
          <mxGeometry x="280" y="40" width="220" height="60" as="geometry" />
        </mxCell>
        <mxCell id="2cgwsK3_psXN7KSWmYCk-259" value="" style="edgeStyle=entityRelationEdgeStyle;fontSize=12;html=1;endArrow=ERzeroToMany;startArrow=ERzeroToOne;rounded=0;exitX=0;exitY=0.5;exitDx=0;exitDy=0;entryX=1;entryY=0.5;entryDx=0;entryDy=0;" parent="2cgwsK3_psXN7KSWmYCk-306" source="2cgwsK3_psXN7KSWmYCk-250" target="2cgwsK3_psXN7KSWmYCk-245" edge="1">
          <mxGeometry width="100" height="100" relative="1" as="geometry">
            <mxPoint x="-250" y="260" as="sourcePoint" />
            <mxPoint x="-150" y="160" as="targetPoint" />
          </mxGeometry>
        </mxCell>
        <mxCell id="a-kXH_K3RjAkUMLSDjY3-32" value="" style="group" parent="1" vertex="1" connectable="0">
          <mxGeometry width="1320" height="590" as="geometry" />
        </mxCell>
        <mxCell id="2cgwsK3_psXN7KSWmYCk-59" value="" style="rounded=0;whiteSpace=wrap;html=1;" parent="a-kXH_K3RjAkUMLSDjY3-32" vertex="1">
          <mxGeometry width="1320" height="590" as="geometry" />
        </mxCell>
        <mxCell id="2cgwsK3_psXN7KSWmYCk-1" value="model" style="swimlane;fontStyle=0;childLayout=stackLayout;horizontal=1;startSize=26;fillColor=none;horizontalStack=0;resizeParent=1;resizeParentMax=0;resizeLast=0;collapsible=1;marginBottom=0;whiteSpace=wrap;html=1;" parent="a-kXH_K3RjAkUMLSDjY3-32" vertex="1">
          <mxGeometry x="521" y="243" width="140" height="168" as="geometry" />
        </mxCell>
        <mxCell id="2cgwsK3_psXN7KSWmYCk-2" value="&amp;nbsp;id" style="text;strokeColor=none;fillColor=none;align=left;verticalAlign=middle;spacingLeft=4;spacingRight=4;overflow=hidden;rotatable=0;points=[[0,0.5],[1,0.5]];portConstraint=eastwest;whiteSpace=wrap;html=1;" parent="2cgwsK3_psXN7KSWmYCk-1" vertex="1">
          <mxGeometry y="26" width="140" height="34" as="geometry" />
        </mxCell>
        <mxCell id="2cgwsK3_psXN7KSWmYCk-3" value="&amp;nbsp;productId" style="text;strokeColor=none;fillColor=none;align=left;verticalAlign=middle;spacingLeft=4;spacingRight=4;overflow=hidden;rotatable=0;points=[[0,0.5],[1,0.5]];portConstraint=eastwest;whiteSpace=wrap;html=1;" parent="2cgwsK3_psXN7KSWmYCk-1" vertex="1">
          <mxGeometry y="60" width="140" height="30" as="geometry" />
        </mxCell>
        <mxCell id="2cgwsK3_psXN7KSWmYCk-4" value="&amp;nbsp;price" style="text;strokeColor=none;fillColor=none;align=left;verticalAlign=top;spacingLeft=4;spacingRight=4;overflow=hidden;rotatable=0;points=[[0,0.5],[1,0.5]];portConstraint=eastwest;whiteSpace=wrap;html=1;" parent="2cgwsK3_psXN7KSWmYCk-1" vertex="1">
          <mxGeometry y="90" width="140" height="26" as="geometry" />
        </mxCell>
        <mxCell id="2cgwsK3_psXN7KSWmYCk-5" value="&amp;nbsp;description" style="text;strokeColor=none;fillColor=none;align=left;verticalAlign=top;spacingLeft=4;spacingRight=4;overflow=hidden;rotatable=0;points=[[0,0.5],[1,0.5]];portConstraint=eastwest;whiteSpace=wrap;html=1;" parent="2cgwsK3_psXN7KSWmYCk-1" vertex="1">
          <mxGeometry y="116" width="140" height="26" as="geometry" />
        </mxCell>
        <mxCell id="2cgwsK3_psXN7KSWmYCk-264" value="state" style="text;strokeColor=none;fillColor=none;align=left;verticalAlign=top;spacingLeft=4;spacingRight=4;overflow=hidden;rotatable=0;points=[[0,0.5],[1,0.5]];portConstraint=eastwest;whiteSpace=wrap;html=1;" parent="2cgwsK3_psXN7KSWmYCk-1" vertex="1">
          <mxGeometry y="142" width="140" height="26" as="geometry" />
        </mxCell>
        <mxCell id="2cgwsK3_psXN7KSWmYCk-8" value="product" style="swimlane;fontStyle=0;childLayout=stackLayout;horizontal=1;startSize=26;fillColor=none;horizontalStack=0;resizeParent=1;resizeParentMax=0;resizeLast=0;collapsible=1;marginBottom=0;whiteSpace=wrap;html=1;" parent="a-kXH_K3RjAkUMLSDjY3-32" vertex="1">
          <mxGeometry x="281" y="280" width="180" height="130" as="geometry" />
        </mxCell>
        <mxCell id="2cgwsK3_psXN7KSWmYCk-9" value="&amp;nbsp;id" style="text;strokeColor=none;fillColor=none;align=left;verticalAlign=top;spacingLeft=4;spacingRight=4;overflow=hidden;rotatable=0;points=[[0,0.5],[1,0.5]];portConstraint=eastwest;whiteSpace=wrap;html=1;" parent="2cgwsK3_psXN7KSWmYCk-8" vertex="1">
          <mxGeometry y="26" width="180" height="26" as="geometry" />
        </mxCell>
        <mxCell id="2cgwsK3_psXN7KSWmYCk-10" value="&amp;nbsp;title" style="text;strokeColor=none;fillColor=none;align=left;verticalAlign=top;spacingLeft=4;spacingRight=4;overflow=hidden;rotatable=0;points=[[0,0.5],[1,0.5]];portConstraint=eastwest;whiteSpace=wrap;html=1;" parent="2cgwsK3_psXN7KSWmYCk-8" vertex="1">
          <mxGeometry y="52" width="180" height="26" as="geometry" />
        </mxCell>
        <mxCell id="2cgwsK3_psXN7KSWmYCk-12" value="sellerId" style="text;strokeColor=none;fillColor=none;align=left;verticalAlign=top;spacingLeft=4;spacingRight=4;overflow=hidden;rotatable=0;points=[[0,0.5],[1,0.5]];portConstraint=eastwest;whiteSpace=wrap;html=1;" parent="2cgwsK3_psXN7KSWmYCk-8" vertex="1">
          <mxGeometry y="78" width="180" height="26" as="geometry" />
        </mxCell>
        <mxCell id="2cgwsK3_psXN7KSWmYCk-169" value="manufacturer" style="text;strokeColor=none;fillColor=none;align=left;verticalAlign=top;spacingLeft=4;spacingRight=4;overflow=hidden;rotatable=0;points=[[0,0.5],[1,0.5]];portConstraint=eastwest;whiteSpace=wrap;html=1;" parent="2cgwsK3_psXN7KSWmYCk-8" vertex="1">
          <mxGeometry y="104" width="180" height="26" as="geometry" />
        </mxCell>
        <mxCell id="2cgwsK3_psXN7KSWmYCk-13" value="" style="edgeStyle=orthogonalEdgeStyle;fontSize=12;html=1;endArrow=ERoneToMany;startArrow=ERmandOne;rounded=0;exitX=1;exitY=0.5;exitDx=0;exitDy=0;entryX=0;entryY=0.5;entryDx=0;entryDy=0;" parent="a-kXH_K3RjAkUMLSDjY3-32" source="2cgwsK3_psXN7KSWmYCk-9" target="2cgwsK3_psXN7KSWmYCk-3" edge="1">
          <mxGeometry width="100" height="100" relative="1" as="geometry">
            <mxPoint x="611" y="580" as="sourcePoint" />
            <mxPoint x="511" y="310" as="targetPoint" />
          </mxGeometry>
        </mxCell>
        <mxCell id="2cgwsK3_psXN7KSWmYCk-14" value="category" style="swimlane;fontStyle=0;childLayout=stackLayout;horizontal=1;startSize=26;fillColor=none;horizontalStack=0;resizeParent=1;resizeParentMax=0;resizeLast=0;collapsible=1;marginBottom=0;whiteSpace=wrap;html=1;" parent="a-kXH_K3RjAkUMLSDjY3-32" vertex="1">
          <mxGeometry x="91" y="350" width="140" height="78" as="geometry" />
        </mxCell>
        <mxCell id="2cgwsK3_psXN7KSWmYCk-15" value="id" style="text;strokeColor=none;fillColor=none;align=left;verticalAlign=top;spacingLeft=4;spacingRight=4;overflow=hidden;rotatable=0;points=[[0,0.5],[1,0.5]];portConstraint=eastwest;whiteSpace=wrap;html=1;" parent="2cgwsK3_psXN7KSWmYCk-14" vertex="1">
          <mxGeometry y="26" width="140" height="26" as="geometry" />
        </mxCell>
        <mxCell id="2cgwsK3_psXN7KSWmYCk-16" value="title" style="text;strokeColor=none;fillColor=none;align=left;verticalAlign=top;spacingLeft=4;spacingRight=4;overflow=hidden;rotatable=0;points=[[0,0.5],[1,0.5]];portConstraint=eastwest;whiteSpace=wrap;html=1;" parent="2cgwsK3_psXN7KSWmYCk-14" vertex="1">
          <mxGeometry y="52" width="140" height="26" as="geometry" />
        </mxCell>
        <mxCell id="2cgwsK3_psXN7KSWmYCk-20" value="spec" style="swimlane;fontStyle=0;childLayout=stackLayout;horizontal=1;startSize=26;fillColor=none;horizontalStack=0;resizeParent=1;resizeParentMax=0;resizeLast=0;collapsible=1;marginBottom=0;whiteSpace=wrap;html=1;" parent="a-kXH_K3RjAkUMLSDjY3-32" vertex="1">
          <mxGeometry x="121" y="130" width="100" height="102" as="geometry" />
        </mxCell>
        <mxCell id="2cgwsK3_psXN7KSWmYCk-21" value="id&amp;nbsp;" style="text;strokeColor=none;fillColor=none;align=left;verticalAlign=top;spacingLeft=4;spacingRight=4;overflow=hidden;rotatable=0;points=[[0,0.5],[1,0.5]];portConstraint=eastwest;whiteSpace=wrap;html=1;" parent="2cgwsK3_psXN7KSWmYCk-20" vertex="1">
          <mxGeometry y="26" width="100" height="24" as="geometry" />
        </mxCell>
        <mxCell id="2cgwsK3_psXN7KSWmYCk-22" value="name&amp;nbsp;" style="text;strokeColor=none;fillColor=none;align=left;verticalAlign=top;spacingLeft=4;spacingRight=4;overflow=hidden;rotatable=0;points=[[0,0.5],[1,0.5]];portConstraint=eastwest;whiteSpace=wrap;html=1;" parent="2cgwsK3_psXN7KSWmYCk-20" vertex="1">
          <mxGeometry y="50" width="100" height="26" as="geometry" />
        </mxCell>
        <mxCell id="2cgwsK3_psXN7KSWmYCk-23" value="value" style="text;strokeColor=none;fillColor=none;align=left;verticalAlign=top;spacingLeft=4;spacingRight=4;overflow=hidden;rotatable=0;points=[[0,0.5],[1,0.5]];portConstraint=eastwest;whiteSpace=wrap;html=1;" parent="2cgwsK3_psXN7KSWmYCk-20" vertex="1">
          <mxGeometry y="76" width="100" height="26" as="geometry" />
        </mxCell>
        <mxCell id="2cgwsK3_psXN7KSWmYCk-31" value="image" style="swimlane;fontStyle=0;childLayout=stackLayout;horizontal=1;startSize=26;fillColor=none;horizontalStack=0;resizeParent=1;resizeParentMax=0;resizeLast=0;collapsible=1;marginBottom=0;whiteSpace=wrap;html=1;" parent="a-kXH_K3RjAkUMLSDjY3-32" vertex="1">
          <mxGeometry x="901" y="460" width="140" height="78" as="geometry" />
        </mxCell>
        <mxCell id="2cgwsK3_psXN7KSWmYCk-32" value="id" style="text;strokeColor=none;fillColor=none;align=left;verticalAlign=top;spacingLeft=4;spacingRight=4;overflow=hidden;rotatable=0;points=[[0,0.5],[1,0.5]];portConstraint=eastwest;whiteSpace=wrap;html=1;" parent="2cgwsK3_psXN7KSWmYCk-31" vertex="1">
          <mxGeometry y="26" width="140" height="26" as="geometry" />
        </mxCell>
        <mxCell id="2cgwsK3_psXN7KSWmYCk-33" value="url" style="text;strokeColor=none;fillColor=none;align=left;verticalAlign=top;spacingLeft=4;spacingRight=4;overflow=hidden;rotatable=0;points=[[0,0.5],[1,0.5]];portConstraint=eastwest;whiteSpace=wrap;html=1;" parent="2cgwsK3_psXN7KSWmYCk-31" vertex="1">
          <mxGeometry y="52" width="140" height="26" as="geometry" />
        </mxCell>
        <mxCell id="2cgwsK3_psXN7KSWmYCk-34" value="commentary" style="swimlane;fontStyle=0;childLayout=stackLayout;horizontal=1;startSize=26;fillColor=none;horizontalStack=0;resizeParent=1;resizeParentMax=0;resizeLast=0;collapsible=1;marginBottom=0;whiteSpace=wrap;html=1;" parent="a-kXH_K3RjAkUMLSDjY3-32" vertex="1">
          <mxGeometry x="1001" y="225" width="140" height="170" as="geometry" />
        </mxCell>
        <mxCell id="2cgwsK3_psXN7KSWmYCk-35" value="id" style="text;strokeColor=none;fillColor=none;align=left;verticalAlign=top;spacingLeft=4;spacingRight=4;overflow=hidden;rotatable=0;points=[[0,0.5],[1,0.5]];portConstraint=eastwest;whiteSpace=wrap;html=1;" parent="2cgwsK3_psXN7KSWmYCk-34" vertex="1">
          <mxGeometry y="26" width="140" height="26" as="geometry" />
        </mxCell>
        <mxCell id="2cgwsK3_psXN7KSWmYCk-36" value="modeld" style="text;strokeColor=none;fillColor=none;align=left;verticalAlign=top;spacingLeft=4;spacingRight=4;overflow=hidden;rotatable=0;points=[[0,0.5],[1,0.5]];portConstraint=eastwest;whiteSpace=wrap;html=1;" parent="2cgwsK3_psXN7KSWmYCk-34" vertex="1">
          <mxGeometry y="52" width="140" height="26" as="geometry" />
        </mxCell>
        <mxCell id="2cgwsK3_psXN7KSWmYCk-265" value="creationDate" style="text;strokeColor=none;fillColor=none;align=left;verticalAlign=top;spacingLeft=4;spacingRight=4;overflow=hidden;rotatable=0;points=[[0,0.5],[1,0.5]];portConstraint=eastwest;whiteSpace=wrap;html=1;" parent="2cgwsK3_psXN7KSWmYCk-34" vertex="1">
          <mxGeometry y="78" width="140" height="26" as="geometry" />
        </mxCell>
        <mxCell id="2cgwsK3_psXN7KSWmYCk-274" value="userId (unique for rC. and modelid)" style="text;strokeColor=none;fillColor=none;align=left;verticalAlign=top;spacingLeft=4;spacingRight=4;overflow=hidden;rotatable=0;points=[[0,0.5],[1,0.5]];portConstraint=eastwest;whiteSpace=wrap;html=1;" parent="2cgwsK3_psXN7KSWmYCk-34" vertex="1">
          <mxGeometry y="104" width="140" height="40" as="geometry" />
        </mxCell>
        <mxCell id="2cgwsK3_psXN7KSWmYCk-37" value="referencedCommentary" style="text;strokeColor=none;fillColor=none;align=left;verticalAlign=top;spacingLeft=4;spacingRight=4;overflow=hidden;rotatable=0;points=[[0,0.5],[1,0.5]];portConstraint=eastwest;whiteSpace=wrap;html=1;" parent="2cgwsK3_psXN7KSWmYCk-34" vertex="1">
          <mxGeometry y="144" width="140" height="26" as="geometry" />
        </mxCell>
        <mxCell id="2cgwsK3_psXN7KSWmYCk-287" value="" style="endArrow=ERzeroToOne;html=1;rounded=0;entryX=1;entryY=0.5;entryDx=0;entryDy=0;exitX=0;exitY=0.5;exitDx=0;exitDy=0;endFill=0;" parent="2cgwsK3_psXN7KSWmYCk-34" source="2cgwsK3_psXN7KSWmYCk-37" target="2cgwsK3_psXN7KSWmYCk-37" edge="1">
          <mxGeometry width="50" height="50" relative="1" as="geometry">
            <mxPoint x="80" y="249" as="sourcePoint" />
            <mxPoint x="130" y="199" as="targetPoint" />
            <Array as="points">
              <mxPoint x="-30" y="157" />
              <mxPoint x="-30" y="195" />
              <mxPoint x="70" y="195" />
              <mxPoint x="170" y="195" />
              <mxPoint x="170" y="157" />
            </Array>
          </mxGeometry>
        </mxCell>
        <mxCell id="2cgwsK3_psXN7KSWmYCk-49" value="rating" style="swimlane;fontStyle=0;childLayout=stackLayout;horizontal=1;startSize=26;fillColor=none;horizontalStack=0;resizeParent=1;resizeParentMax=0;resizeLast=0;collapsible=1;marginBottom=0;whiteSpace=wrap;html=1;" parent="a-kXH_K3RjAkUMLSDjY3-32" vertex="1">
          <mxGeometry x="721" y="70" width="140" height="156" as="geometry" />
        </mxCell>
        <mxCell id="2cgwsK3_psXN7KSWmYCk-50" value="ld" style="text;strokeColor=none;fillColor=none;align=left;verticalAlign=top;spacingLeft=4;spacingRight=4;overflow=hidden;rotatable=0;points=[[0,0.5],[1,0.5]];portConstraint=eastwest;whiteSpace=wrap;html=1;" parent="2cgwsK3_psXN7KSWmYCk-49" vertex="1">
          <mxGeometry y="26" width="140" height="26" as="geometry" />
        </mxCell>
        <mxCell id="2cgwsK3_psXN7KSWmYCk-51" value="userId" style="text;strokeColor=none;fillColor=none;align=left;verticalAlign=top;spacingLeft=4;spacingRight=4;overflow=hidden;rotatable=0;points=[[0,0.5],[1,0.5]];portConstraint=eastwest;whiteSpace=wrap;html=1;" parent="2cgwsK3_psXN7KSWmYCk-49" vertex="1">
          <mxGeometry y="52" width="140" height="26" as="geometry" />
        </mxCell>
        <mxCell id="2cgwsK3_psXN7KSWmYCk-52" value="modeld" style="text;strokeColor=none;fillColor=none;align=left;verticalAlign=top;spacingLeft=4;spacingRight=4;overflow=hidden;rotatable=0;points=[[0,0.5],[1,0.5]];portConstraint=eastwest;whiteSpace=wrap;html=1;" parent="2cgwsK3_psXN7KSWmYCk-49" vertex="1">
          <mxGeometry y="78" width="140" height="26" as="geometry" />
        </mxCell>
        <mxCell id="2cgwsK3_psXN7KSWmYCk-53" value="value" style="text;strokeColor=none;fillColor=none;align=left;verticalAlign=top;spacingLeft=4;spacingRight=4;overflow=hidden;rotatable=0;points=[[0,0.5],[1,0.5]];portConstraint=eastwest;whiteSpace=wrap;html=1;" parent="2cgwsK3_psXN7KSWmYCk-49" vertex="1">
          <mxGeometry y="104" width="140" height="26" as="geometry" />
        </mxCell>
        <mxCell id="2cgwsK3_psXN7KSWmYCk-54" value="commentaryId" style="text;strokeColor=none;fillColor=none;align=left;verticalAlign=top;spacingLeft=4;spacingRight=4;overflow=hidden;rotatable=0;points=[[0,0.5],[1,0.5]];portConstraint=eastwest;whiteSpace=wrap;html=1;" parent="2cgwsK3_psXN7KSWmYCk-49" vertex="1">
          <mxGeometry y="130" width="140" height="26" as="geometry" />
        </mxCell>
        <mxCell id="2cgwsK3_psXN7KSWmYCk-55" value="" style="edgeStyle=entityRelationEdgeStyle;fontSize=12;html=1;endArrow=ERzeroToMany;startArrow=ERmandOne;rounded=0;exitX=1;exitY=0.217;exitDx=0;exitDy=0;entryX=0;entryY=0.5;entryDx=0;entryDy=0;exitPerimeter=0;" parent="a-kXH_K3RjAkUMLSDjY3-32" source="2cgwsK3_psXN7KSWmYCk-2" target="2cgwsK3_psXN7KSWmYCk-52" edge="1">
          <mxGeometry width="100" height="100" relative="1" as="geometry">
            <mxPoint x="611" y="300" as="sourcePoint" />
            <mxPoint x="711" y="200" as="targetPoint" />
          </mxGeometry>
        </mxCell>
        <mxCell id="2cgwsK3_psXN7KSWmYCk-57" value="" style="edgeStyle=entityRelationEdgeStyle;fontSize=12;html=1;endArrow=ERzeroToMany;startArrow=ERmandOne;rounded=0;entryX=0;entryY=0.5;entryDx=0;entryDy=0;exitX=0.997;exitY=0.582;exitDx=0;exitDy=0;exitPerimeter=0;" parent="a-kXH_K3RjAkUMLSDjY3-32" source="2cgwsK3_psXN7KSWmYCk-2" target="2cgwsK3_psXN7KSWmYCk-36" edge="1">
          <mxGeometry width="100" height="100" relative="1" as="geometry">
            <mxPoint x="681" y="293" as="sourcePoint" />
            <mxPoint x="1011" y="345" as="targetPoint" />
            <Array as="points">
              <mxPoint x="821" y="370" />
              <mxPoint x="821" y="350" />
            </Array>
          </mxGeometry>
        </mxCell>
        <mxCell id="2cgwsK3_psXN7KSWmYCk-58" value="&lt;b&gt;&lt;font style=&quot;font-size: 18px;&quot;&gt;Product&lt;/font&gt;&lt;/b&gt;" style="text;strokeColor=none;fillColor=none;spacingLeft=4;spacingRight=4;overflow=hidden;rotatable=0;points=[[0,0.5],[1,0.5]];portConstraint=eastwest;fontSize=12;whiteSpace=wrap;html=1;" parent="a-kXH_K3RjAkUMLSDjY3-32" vertex="1">
          <mxGeometry x="50" y="30" width="90" height="40" as="geometry" />
        </mxCell>
        <mxCell id="2cgwsK3_psXN7KSWmYCk-267" value="like" style="swimlane;fontStyle=0;childLayout=stackLayout;horizontal=1;startSize=26;fillColor=none;horizontalStack=0;resizeParent=1;resizeParentMax=0;resizeLast=0;collapsible=1;marginBottom=0;whiteSpace=wrap;html=1;" parent="a-kXH_K3RjAkUMLSDjY3-32" vertex="1">
          <mxGeometry x="1001" y="60" width="140" height="130" as="geometry" />
        </mxCell>
        <mxCell id="2cgwsK3_psXN7KSWmYCk-268" value="ld" style="text;strokeColor=none;fillColor=none;align=left;verticalAlign=top;spacingLeft=4;spacingRight=4;overflow=hidden;rotatable=0;points=[[0,0.5],[1,0.5]];portConstraint=eastwest;whiteSpace=wrap;html=1;" parent="2cgwsK3_psXN7KSWmYCk-267" vertex="1">
          <mxGeometry y="26" width="140" height="26" as="geometry" />
        </mxCell>
        <mxCell id="2cgwsK3_psXN7KSWmYCk-269" value="userId" style="text;strokeColor=none;fillColor=none;align=left;verticalAlign=top;spacingLeft=4;spacingRight=4;overflow=hidden;rotatable=0;points=[[0,0.5],[1,0.5]];portConstraint=eastwest;whiteSpace=wrap;html=1;" parent="2cgwsK3_psXN7KSWmYCk-267" vertex="1">
          <mxGeometry y="52" width="140" height="26" as="geometry" />
        </mxCell>
        <mxCell id="2cgwsK3_psXN7KSWmYCk-270" value="commentaryId" style="text;strokeColor=none;fillColor=none;align=left;verticalAlign=top;spacingLeft=4;spacingRight=4;overflow=hidden;rotatable=0;points=[[0,0.5],[1,0.5]];portConstraint=eastwest;whiteSpace=wrap;html=1;" parent="2cgwsK3_psXN7KSWmYCk-267" vertex="1">
          <mxGeometry y="78" width="140" height="26" as="geometry" />
        </mxCell>
        <mxCell id="2cgwsK3_psXN7KSWmYCk-271" value="creationDate" style="text;strokeColor=none;fillColor=none;align=left;verticalAlign=top;spacingLeft=4;spacingRight=4;overflow=hidden;rotatable=0;points=[[0,0.5],[1,0.5]];portConstraint=eastwest;whiteSpace=wrap;html=1;" parent="2cgwsK3_psXN7KSWmYCk-267" vertex="1">
          <mxGeometry y="104" width="140" height="26" as="geometry" />
        </mxCell>
        <mxCell id="2cgwsK3_psXN7KSWmYCk-273" value="" style="edgeStyle=orthogonalEdgeStyle;fontSize=12;html=1;endArrow=ERzeroToMany;startArrow=ERmandOne;rounded=0;entryX=1;entryY=0.5;entryDx=0;entryDy=0;exitX=0.998;exitY=0.296;exitDx=0;exitDy=0;exitPerimeter=0;" parent="a-kXH_K3RjAkUMLSDjY3-32" source="2cgwsK3_psXN7KSWmYCk-35" target="2cgwsK3_psXN7KSWmYCk-270" edge="1">
          <mxGeometry width="100" height="100" relative="1" as="geometry">
            <mxPoint x="551" y="370" as="sourcePoint" />
            <mxPoint x="651" y="270" as="targetPoint" />
            <Array as="points">
              <mxPoint x="1181" y="259" />
              <mxPoint x="1181" y="151" />
            </Array>
          </mxGeometry>
        </mxCell>
        <mxCell id="2cgwsK3_psXN7KSWmYCk-281" value="" style="edgeStyle=orthogonalEdgeStyle;fontSize=12;html=1;endArrow=ERzeroToOne;endFill=1;rounded=0;entryX=0;entryY=0.5;entryDx=0;entryDy=0;exitX=1;exitY=0.5;exitDx=0;exitDy=0;" parent="a-kXH_K3RjAkUMLSDjY3-32" source="2cgwsK3_psXN7KSWmYCk-54" target="2cgwsK3_psXN7KSWmYCk-35" edge="1">
          <mxGeometry width="100" height="100" relative="1" as="geometry">
            <mxPoint x="481" y="370" as="sourcePoint" />
            <mxPoint x="581" y="270" as="targetPoint" />
          </mxGeometry>
        </mxCell>
        <mxCell id="a-kXH_K3RjAkUMLSDjY3-1" value="category_product" style="swimlane;fontStyle=0;childLayout=stackLayout;horizontal=1;startSize=26;fillColor=none;horizontalStack=0;resizeParent=1;resizeParentMax=0;resizeLast=0;collapsible=1;marginBottom=0;whiteSpace=wrap;html=1;" parent="a-kXH_K3RjAkUMLSDjY3-32" vertex="1">
          <mxGeometry x="91" y="254" width="140" height="78" as="geometry" />
        </mxCell>
        <mxCell id="a-kXH_K3RjAkUMLSDjY3-2" value="category_id" style="text;strokeColor=none;fillColor=none;align=left;verticalAlign=top;spacingLeft=4;spacingRight=4;overflow=hidden;rotatable=0;points=[[0,0.5],[1,0.5]];portConstraint=eastwest;whiteSpace=wrap;html=1;" parent="a-kXH_K3RjAkUMLSDjY3-1" vertex="1">
          <mxGeometry y="26" width="140" height="26" as="geometry" />
        </mxCell>
        <mxCell id="a-kXH_K3RjAkUMLSDjY3-3" value="product_id" style="text;strokeColor=none;fillColor=none;align=left;verticalAlign=top;spacingLeft=4;spacingRight=4;overflow=hidden;rotatable=0;points=[[0,0.5],[1,0.5]];portConstraint=eastwest;whiteSpace=wrap;html=1;" parent="a-kXH_K3RjAkUMLSDjY3-1" vertex="1">
          <mxGeometry y="52" width="140" height="26" as="geometry" />
        </mxCell>
        <mxCell id="a-kXH_K3RjAkUMLSDjY3-6" value="" style="edgeStyle=entityRelationEdgeStyle;fontSize=12;html=1;endArrow=ERzeroToMany;startArrow=ERmandOne;rounded=0;exitX=0;exitY=0.5;exitDx=0;exitDy=0;entryX=1;entryY=0.5;entryDx=0;entryDy=0;" parent="a-kXH_K3RjAkUMLSDjY3-32" source="2cgwsK3_psXN7KSWmYCk-9" target="a-kXH_K3RjAkUMLSDjY3-3" edge="1">
          <mxGeometry width="100" height="100" relative="1" as="geometry">
            <mxPoint x="431" y="253" as="sourcePoint" />
            <mxPoint x="491" y="90" as="targetPoint" />
          </mxGeometry>
        </mxCell>
        <mxCell id="a-kXH_K3RjAkUMLSDjY3-7" value="" style="edgeStyle=elbowEdgeStyle;fontSize=12;html=1;endArrow=ERzeroToMany;startArrow=ERmandOne;rounded=0;exitX=0;exitY=0.5;exitDx=0;exitDy=0;entryX=0;entryY=0.5;entryDx=0;entryDy=0;" parent="a-kXH_K3RjAkUMLSDjY3-32" source="2cgwsK3_psXN7KSWmYCk-15" target="a-kXH_K3RjAkUMLSDjY3-2" edge="1">
          <mxGeometry width="100" height="100" relative="1" as="geometry">
            <mxPoint x="-19" y="320" as="sourcePoint" />
            <mxPoint x="-19" y="200" as="targetPoint" />
            <Array as="points">
              <mxPoint x="51" y="340" />
            </Array>
          </mxGeometry>
        </mxCell>
        <mxCell id="a-kXH_K3RjAkUMLSDjY3-8" value="model_spec" style="swimlane;fontStyle=0;childLayout=stackLayout;horizontal=1;startSize=26;fillColor=none;horizontalStack=0;resizeParent=1;resizeParentMax=0;resizeLast=0;collapsible=1;marginBottom=0;whiteSpace=wrap;html=1;" parent="a-kXH_K3RjAkUMLSDjY3-32" vertex="1">
          <mxGeometry x="301" y="178" width="150" height="76" as="geometry" />
        </mxCell>
        <mxCell id="a-kXH_K3RjAkUMLSDjY3-9" value="model_id" style="text;strokeColor=none;fillColor=none;align=left;verticalAlign=top;spacingLeft=4;spacingRight=4;overflow=hidden;rotatable=0;points=[[0,0.5],[1,0.5]];portConstraint=eastwest;whiteSpace=wrap;html=1;" parent="a-kXH_K3RjAkUMLSDjY3-8" vertex="1">
          <mxGeometry y="26" width="150" height="24" as="geometry" />
        </mxCell>
        <mxCell id="a-kXH_K3RjAkUMLSDjY3-10" value="spec_id" style="text;strokeColor=none;fillColor=none;align=left;verticalAlign=top;spacingLeft=4;spacingRight=4;overflow=hidden;rotatable=0;points=[[0,0.5],[1,0.5]];portConstraint=eastwest;whiteSpace=wrap;html=1;" parent="a-kXH_K3RjAkUMLSDjY3-8" vertex="1">
          <mxGeometry y="50" width="150" height="26" as="geometry" />
        </mxCell>
        <mxCell id="a-kXH_K3RjAkUMLSDjY3-13" value="" style="edgeStyle=orthogonalEdgeStyle;fontSize=12;html=1;endArrow=ERoneToMany;startArrow=ERmandOne;rounded=0;exitX=1;exitY=0.5;exitDx=0;exitDy=0;entryX=0;entryY=0.5;entryDx=0;entryDy=0;" parent="a-kXH_K3RjAkUMLSDjY3-32" source="2cgwsK3_psXN7KSWmYCk-21" target="a-kXH_K3RjAkUMLSDjY3-10" edge="1">
          <mxGeometry width="100" height="100" relative="1" as="geometry">
            <mxPoint x="531" y="332" as="sourcePoint" />
            <mxPoint x="406" y="488" as="targetPoint" />
          </mxGeometry>
        </mxCell>
        <mxCell id="a-kXH_K3RjAkUMLSDjY3-15" value="" style="edgeStyle=orthogonalEdgeStyle;fontSize=12;html=1;endArrow=ERoneToMany;startArrow=ERmandOne;rounded=0;exitX=0;exitY=0.5;exitDx=0;exitDy=0;entryX=1;entryY=0.5;entryDx=0;entryDy=0;" parent="a-kXH_K3RjAkUMLSDjY3-32" source="2cgwsK3_psXN7KSWmYCk-2" target="a-kXH_K3RjAkUMLSDjY3-9" edge="1">
          <mxGeometry width="100" height="100" relative="1" as="geometry">
            <mxPoint x="291" y="400" as="sourcePoint" />
            <mxPoint x="401" y="520" as="targetPoint" />
          </mxGeometry>
        </mxCell>
        <mxCell id="a-kXH_K3RjAkUMLSDjY3-16" value="model_image" style="swimlane;fontStyle=0;childLayout=stackLayout;horizontal=1;startSize=26;fillColor=none;horizontalStack=0;resizeParent=1;resizeParentMax=0;resizeLast=0;collapsible=1;marginBottom=0;whiteSpace=wrap;html=1;" parent="a-kXH_K3RjAkUMLSDjY3-32" vertex="1">
          <mxGeometry x="721" y="365" width="140" height="78" as="geometry" />
        </mxCell>
        <mxCell id="a-kXH_K3RjAkUMLSDjY3-17" value="model_id" style="text;strokeColor=none;fillColor=none;align=left;verticalAlign=top;spacingLeft=4;spacingRight=4;overflow=hidden;rotatable=0;points=[[0,0.5],[1,0.5]];portConstraint=eastwest;whiteSpace=wrap;html=1;" parent="a-kXH_K3RjAkUMLSDjY3-16" vertex="1">
          <mxGeometry y="26" width="140" height="26" as="geometry" />
        </mxCell>
        <mxCell id="a-kXH_K3RjAkUMLSDjY3-18" value="image_id" style="text;strokeColor=none;fillColor=none;align=left;verticalAlign=top;spacingLeft=4;spacingRight=4;overflow=hidden;rotatable=0;points=[[0,0.5],[1,0.5]];portConstraint=eastwest;whiteSpace=wrap;html=1;" parent="a-kXH_K3RjAkUMLSDjY3-16" vertex="1">
          <mxGeometry y="52" width="140" height="26" as="geometry" />
        </mxCell>
        <mxCell id="a-kXH_K3RjAkUMLSDjY3-19" value="" style="edgeStyle=entityRelationEdgeStyle;fontSize=12;html=1;endArrow=ERzeroToMany;startArrow=ERmandOne;rounded=0;exitX=0.998;exitY=0.868;exitDx=0;exitDy=0;exitPerimeter=0;entryX=0;entryY=0.5;entryDx=0;entryDy=0;" parent="a-kXH_K3RjAkUMLSDjY3-32" source="2cgwsK3_psXN7KSWmYCk-2" target="a-kXH_K3RjAkUMLSDjY3-17" edge="1">
          <mxGeometry width="100" height="100" relative="1" as="geometry">
            <mxPoint x="721" y="560" as="sourcePoint" />
            <mxPoint x="821" y="460" as="targetPoint" />
          </mxGeometry>
        </mxCell>
        <mxCell id="a-kXH_K3RjAkUMLSDjY3-20" value="" style="edgeStyle=orthogonalEdgeStyle;fontSize=12;html=1;endArrow=ERzeroToMany;startArrow=ERmandOne;rounded=0;exitX=0;exitY=0.5;exitDx=0;exitDy=0;entryX=1;entryY=0.5;entryDx=0;entryDy=0;" parent="a-kXH_K3RjAkUMLSDjY3-32" source="2cgwsK3_psXN7KSWmYCk-32" target="a-kXH_K3RjAkUMLSDjY3-18" edge="1">
          <mxGeometry width="100" height="100" relative="1" as="geometry">
            <mxPoint x="651" y="460" as="sourcePoint" />
            <mxPoint x="711" y="556" as="targetPoint" />
          </mxGeometry>
        </mxCell>
        <mxCell id="a-kXH_K3RjAkUMLSDjY3-21" value="commentary_image" style="swimlane;fontStyle=0;childLayout=stackLayout;horizontal=1;startSize=26;fillColor=none;horizontalStack=0;resizeParent=1;resizeParentMax=0;resizeLast=0;collapsible=1;marginBottom=0;whiteSpace=wrap;html=1;" parent="a-kXH_K3RjAkUMLSDjY3-32" vertex="1">
          <mxGeometry x="1111" y="460" width="140" height="78" as="geometry" />
        </mxCell>
        <mxCell id="a-kXH_K3RjAkUMLSDjY3-22" value="commentary_id" style="text;strokeColor=none;fillColor=none;align=left;verticalAlign=top;spacingLeft=4;spacingRight=4;overflow=hidden;rotatable=0;points=[[0,0.5],[1,0.5]];portConstraint=eastwest;whiteSpace=wrap;html=1;" parent="a-kXH_K3RjAkUMLSDjY3-21" vertex="1">
          <mxGeometry y="26" width="140" height="26" as="geometry" />
        </mxCell>
        <mxCell id="a-kXH_K3RjAkUMLSDjY3-23" value="image_id" style="text;strokeColor=none;fillColor=none;align=left;verticalAlign=top;spacingLeft=4;spacingRight=4;overflow=hidden;rotatable=0;points=[[0,0.5],[1,0.5]];portConstraint=eastwest;whiteSpace=wrap;html=1;" parent="a-kXH_K3RjAkUMLSDjY3-21" vertex="1">
          <mxGeometry y="52" width="140" height="26" as="geometry" />
        </mxCell>
        <mxCell id="a-kXH_K3RjAkUMLSDjY3-25" value="" style="edgeStyle=orthogonalEdgeStyle;fontSize=12;html=1;endArrow=ERzeroToMany;startArrow=ERmandOne;rounded=0;exitX=1;exitY=0.5;exitDx=0;exitDy=0;entryX=0;entryY=0.5;entryDx=0;entryDy=0;" parent="a-kXH_K3RjAkUMLSDjY3-32" source="2cgwsK3_psXN7KSWmYCk-32" target="a-kXH_K3RjAkUMLSDjY3-23" edge="1">
          <mxGeometry width="100" height="100" relative="1" as="geometry">
            <mxPoint x="831" y="537.47" as="sourcePoint" />
            <mxPoint x="791" y="468.47" as="targetPoint" />
            <Array as="points">
              <mxPoint x="1076" y="499" />
              <mxPoint x="1076" y="525" />
            </Array>
          </mxGeometry>
        </mxCell>
        <mxCell id="a-kXH_K3RjAkUMLSDjY3-29" value="" style="edgeStyle=orthogonalEdgeStyle;fontSize=12;html=1;endArrow=ERzeroToMany;startArrow=ERmandOne;rounded=0;exitX=0.996;exitY=0.665;exitDx=0;exitDy=0;entryX=1;entryY=0.5;entryDx=0;entryDy=0;exitPerimeter=0;" parent="a-kXH_K3RjAkUMLSDjY3-32" source="2cgwsK3_psXN7KSWmYCk-35" target="a-kXH_K3RjAkUMLSDjY3-22" edge="1">
          <mxGeometry width="100" height="100" relative="1" as="geometry">
            <mxPoint x="1201" y="310" as="sourcePoint" />
            <mxPoint x="1271" y="336" as="targetPoint" />
            <Array as="points">
              <mxPoint x="1271" y="268" />
              <mxPoint x="1271" y="499" />
            </Array>
          </mxGeometry>
        </mxCell>
        <mxCell id="2cgwsK3_psXN7KSWmYCk-201" value="" style="rounded=0;whiteSpace=wrap;html=1;" parent="1" vertex="1">
          <mxGeometry x="1330" width="670" height="590" as="geometry" />
        </mxCell>
        <mxCell id="2cgwsK3_psXN7KSWmYCk-175" value="bill" style="swimlane;fontStyle=0;childLayout=stackLayout;horizontal=1;startSize=26;horizontalStack=0;resizeParent=1;resizeParentMax=0;resizeLast=0;collapsible=1;marginBottom=0;align=center;fontSize=14;" parent="1" vertex="1">
          <mxGeometry x="1380" y="60" width="160" height="506" as="geometry" />
        </mxCell>
        <mxCell id="2cgwsK3_psXN7KSWmYCk-176" value="id" style="text;strokeColor=none;fillColor=none;spacingLeft=4;spacingRight=4;overflow=hidden;rotatable=0;points=[[0,0.5],[1,0.5]];portConstraint=eastwest;fontSize=12;whiteSpace=wrap;html=1;" parent="2cgwsK3_psXN7KSWmYCk-175" vertex="1">
          <mxGeometry y="26" width="160" height="30" as="geometry" />
        </mxCell>
        <mxCell id="2cgwsK3_psXN7KSWmYCk-177" value="name" style="text;strokeColor=none;fillColor=none;spacingLeft=4;spacingRight=4;overflow=hidden;rotatable=0;points=[[0,0.5],[1,0.5]];portConstraint=eastwest;fontSize=12;whiteSpace=wrap;html=1;" parent="2cgwsK3_psXN7KSWmYCk-175" vertex="1">
          <mxGeometry y="56" width="160" height="30" as="geometry" />
        </mxCell>
        <mxCell id="2cgwsK3_psXN7KSWmYCk-178" value="email" style="text;strokeColor=none;fillColor=none;spacingLeft=4;spacingRight=4;overflow=hidden;rotatable=0;points=[[0,0.5],[1,0.5]];portConstraint=eastwest;fontSize=12;whiteSpace=wrap;html=1;" parent="2cgwsK3_psXN7KSWmYCk-175" vertex="1">
          <mxGeometry y="86" width="160" height="30" as="geometry" />
        </mxCell>
        <mxCell id="2cgwsK3_psXN7KSWmYCk-183" value="cardBrand" style="text;strokeColor=none;fillColor=none;spacingLeft=4;spacingRight=4;overflow=hidden;rotatable=0;points=[[0,0.5],[1,0.5]];portConstraint=eastwest;fontSize=12;whiteSpace=wrap;html=1;" parent="2cgwsK3_psXN7KSWmYCk-175" vertex="1">
          <mxGeometry y="116" width="160" height="30" as="geometry" />
        </mxCell>
        <mxCell id="2cgwsK3_psXN7KSWmYCk-182" value="cardNumber" style="text;strokeColor=none;fillColor=none;spacingLeft=4;spacingRight=4;overflow=hidden;rotatable=0;points=[[0,0.5],[1,0.5]];portConstraint=eastwest;fontSize=12;whiteSpace=wrap;html=1;" parent="2cgwsK3_psXN7KSWmYCk-175" vertex="1">
          <mxGeometry y="146" width="160" height="30" as="geometry" />
        </mxCell>
        <mxCell id="2cgwsK3_psXN7KSWmYCk-181" value="cardExpMonth" style="text;strokeColor=none;fillColor=none;spacingLeft=4;spacingRight=4;overflow=hidden;rotatable=0;points=[[0,0.5],[1,0.5]];portConstraint=eastwest;fontSize=12;whiteSpace=wrap;html=1;" parent="2cgwsK3_psXN7KSWmYCk-175" vertex="1">
          <mxGeometry y="176" width="160" height="30" as="geometry" />
        </mxCell>
        <mxCell id="2cgwsK3_psXN7KSWmYCk-180" value="cardExpYear" style="text;strokeColor=none;fillColor=none;spacingLeft=4;spacingRight=4;overflow=hidden;rotatable=0;points=[[0,0.5],[1,0.5]];portConstraint=eastwest;fontSize=12;whiteSpace=wrap;html=1;" parent="2cgwsK3_psXN7KSWmYCk-175" vertex="1">
          <mxGeometry y="206" width="160" height="30" as="geometry" />
        </mxCell>
        <mxCell id="2cgwsK3_psXN7KSWmYCk-179" value="amountReceived" style="text;strokeColor=none;fillColor=none;spacingLeft=4;spacingRight=4;overflow=hidden;rotatable=0;points=[[0,0.5],[1,0.5]];portConstraint=eastwest;fontSize=12;whiteSpace=wrap;html=1;" parent="2cgwsK3_psXN7KSWmYCk-175" vertex="1">
          <mxGeometry y="236" width="160" height="30" as="geometry" />
        </mxCell>
        <mxCell id="ofnfsfvYwBpP_Hw2osBj-1" value="currency" style="text;strokeColor=none;fillColor=none;spacingLeft=4;spacingRight=4;overflow=hidden;rotatable=0;points=[[0,0.5],[1,0.5]];portConstraint=eastwest;fontSize=12;whiteSpace=wrap;html=1;" vertex="1" parent="2cgwsK3_psXN7KSWmYCk-175">
          <mxGeometry y="266" width="160" height="30" as="geometry" />
        </mxCell>
        <mxCell id="ofnfsfvYwBpP_Hw2osBj-2" value="orderId" style="text;strokeColor=none;fillColor=none;spacingLeft=4;spacingRight=4;overflow=hidden;rotatable=0;points=[[0,0.5],[1,0.5]];portConstraint=eastwest;fontSize=12;whiteSpace=wrap;html=1;" vertex="1" parent="2cgwsK3_psXN7KSWmYCk-175">
          <mxGeometry y="296" width="160" height="30" as="geometry" />
        </mxCell>
        <mxCell id="ofnfsfvYwBpP_Hw2osBj-3" value="creationDate" style="text;strokeColor=none;fillColor=none;spacingLeft=4;spacingRight=4;overflow=hidden;rotatable=0;points=[[0,0.5],[1,0.5]];portConstraint=eastwest;fontSize=12;whiteSpace=wrap;html=1;" vertex="1" parent="2cgwsK3_psXN7KSWmYCk-175">
          <mxGeometry y="326" width="160" height="30" as="geometry" />
        </mxCell>
        <mxCell id="ofnfsfvYwBpP_Hw2osBj-4" value="street" style="text;strokeColor=none;fillColor=none;spacingLeft=4;spacingRight=4;overflow=hidden;rotatable=0;points=[[0,0.5],[1,0.5]];portConstraint=eastwest;fontSize=12;whiteSpace=wrap;html=1;" vertex="1" parent="2cgwsK3_psXN7KSWmYCk-175">
          <mxGeometry y="356" width="160" height="30" as="geometry" />
        </mxCell>
        <mxCell id="ofnfsfvYwBpP_Hw2osBj-7" value="locality" style="text;strokeColor=none;fillColor=none;spacingLeft=4;spacingRight=4;overflow=hidden;rotatable=0;points=[[0,0.5],[1,0.5]];portConstraint=eastwest;fontSize=12;whiteSpace=wrap;html=1;" vertex="1" parent="2cgwsK3_psXN7KSWmYCk-175">
          <mxGeometry y="386" width="160" height="30" as="geometry" />
        </mxCell>
        <mxCell id="ofnfsfvYwBpP_Hw2osBj-6" value="province" style="text;strokeColor=none;fillColor=none;spacingLeft=4;spacingRight=4;overflow=hidden;rotatable=0;points=[[0,0.5],[1,0.5]];portConstraint=eastwest;fontSize=12;whiteSpace=wrap;html=1;" vertex="1" parent="2cgwsK3_psXN7KSWmYCk-175">
          <mxGeometry y="416" width="160" height="30" as="geometry" />
        </mxCell>
        <mxCell id="ofnfsfvYwBpP_Hw2osBj-5" value="cp" style="text;strokeColor=none;fillColor=none;spacingLeft=4;spacingRight=4;overflow=hidden;rotatable=0;points=[[0,0.5],[1,0.5]];portConstraint=eastwest;fontSize=12;whiteSpace=wrap;html=1;" vertex="1" parent="2cgwsK3_psXN7KSWmYCk-175">
          <mxGeometry y="446" width="160" height="30" as="geometry" />
        </mxCell>
        <mxCell id="ofnfsfvYwBpP_Hw2osBj-8" value="country" style="text;strokeColor=none;fillColor=none;spacingLeft=4;spacingRight=4;overflow=hidden;rotatable=0;points=[[0,0.5],[1,0.5]];portConstraint=eastwest;fontSize=12;whiteSpace=wrap;html=1;" vertex="1" parent="2cgwsK3_psXN7KSWmYCk-175">
          <mxGeometry y="476" width="160" height="30" as="geometry" />
        </mxCell>
        <mxCell id="2cgwsK3_psXN7KSWmYCk-184" value="paymentcard" style="swimlane;fontStyle=0;childLayout=stackLayout;horizontal=1;startSize=26;horizontalStack=0;resizeParent=1;resizeParentMax=0;resizeLast=0;collapsible=1;marginBottom=0;align=center;fontSize=14;" parent="1" vertex="1">
          <mxGeometry x="1820" y="260" width="160" height="236" as="geometry" />
        </mxCell>
        <mxCell id="2cgwsK3_psXN7KSWmYCk-185" value="id" style="text;strokeColor=none;fillColor=none;spacingLeft=4;spacingRight=4;overflow=hidden;rotatable=0;points=[[0,0.5],[1,0.5]];portConstraint=eastwest;fontSize=12;whiteSpace=wrap;html=1;" parent="2cgwsK3_psXN7KSWmYCk-184" vertex="1">
          <mxGeometry y="26" width="160" height="30" as="geometry" />
        </mxCell>
        <mxCell id="2cgwsK3_psXN7KSWmYCk-186" value="cardNumber" style="text;strokeColor=none;fillColor=none;spacingLeft=4;spacingRight=4;overflow=hidden;rotatable=0;points=[[0,0.5],[1,0.5]];portConstraint=eastwest;fontSize=12;whiteSpace=wrap;html=1;" parent="2cgwsK3_psXN7KSWmYCk-184" vertex="1">
          <mxGeometry y="56" width="160" height="30" as="geometry" />
        </mxCell>
        <mxCell id="2cgwsK3_psXN7KSWmYCk-187" value="cardHolderName" style="text;strokeColor=none;fillColor=none;spacingLeft=4;spacingRight=4;overflow=hidden;rotatable=0;points=[[0,0.5],[1,0.5]];portConstraint=eastwest;fontSize=12;whiteSpace=wrap;html=1;" parent="2cgwsK3_psXN7KSWmYCk-184" vertex="1">
          <mxGeometry y="86" width="160" height="30" as="geometry" />
        </mxCell>
        <mxCell id="2cgwsK3_psXN7KSWmYCk-188" value="cardType" style="text;strokeColor=none;fillColor=none;spacingLeft=4;spacingRight=4;overflow=hidden;rotatable=0;points=[[0,0.5],[1,0.5]];portConstraint=eastwest;fontSize=12;whiteSpace=wrap;html=1;" parent="2cgwsK3_psXN7KSWmYCk-184" vertex="1">
          <mxGeometry y="116" width="160" height="30" as="geometry" />
        </mxCell>
        <mxCell id="2cgwsK3_psXN7KSWmYCk-189" value="expirationDate" style="text;strokeColor=none;fillColor=none;spacingLeft=4;spacingRight=4;overflow=hidden;rotatable=0;points=[[0,0.5],[1,0.5]];portConstraint=eastwest;fontSize=12;whiteSpace=wrap;html=1;" parent="2cgwsK3_psXN7KSWmYCk-184" vertex="1">
          <mxGeometry y="146" width="160" height="30" as="geometry" />
        </mxCell>
        <mxCell id="2cgwsK3_psXN7KSWmYCk-190" value="userId" style="text;strokeColor=none;fillColor=none;spacingLeft=4;spacingRight=4;overflow=hidden;rotatable=0;points=[[0,0.5],[1,0.5]];portConstraint=eastwest;fontSize=12;whiteSpace=wrap;html=1;" parent="2cgwsK3_psXN7KSWmYCk-184" vertex="1">
          <mxGeometry y="176" width="160" height="30" as="geometry" />
        </mxCell>
        <mxCell id="2cgwsK3_psXN7KSWmYCk-191" value="cardAlias" style="text;strokeColor=none;fillColor=none;spacingLeft=4;spacingRight=4;overflow=hidden;rotatable=0;points=[[0,0.5],[1,0.5]];portConstraint=eastwest;fontSize=12;whiteSpace=wrap;html=1;" parent="2cgwsK3_psXN7KSWmYCk-184" vertex="1">
          <mxGeometry y="206" width="160" height="30" as="geometry" />
        </mxCell>
        <mxCell id="2cgwsK3_psXN7KSWmYCk-193" value="address" style="swimlane;fontStyle=0;childLayout=stackLayout;horizontal=1;startSize=26;horizontalStack=0;resizeParent=1;resizeParentMax=0;resizeLast=0;collapsible=1;marginBottom=0;align=center;fontSize=14;" parent="1" vertex="1">
          <mxGeometry x="1600" y="290" width="160" height="206" as="geometry" />
        </mxCell>
        <mxCell id="2cgwsK3_psXN7KSWmYCk-194" value="locality" style="text;strokeColor=none;fillColor=none;spacingLeft=4;spacingRight=4;overflow=hidden;rotatable=0;points=[[0,0.5],[1,0.5]];portConstraint=eastwest;fontSize=12;whiteSpace=wrap;html=1;" parent="2cgwsK3_psXN7KSWmYCk-193" vertex="1">
          <mxGeometry y="26" width="160" height="30" as="geometry" />
        </mxCell>
        <mxCell id="2cgwsK3_psXN7KSWmYCk-195" value="province" style="text;strokeColor=none;fillColor=none;spacingLeft=4;spacingRight=4;overflow=hidden;rotatable=0;points=[[0,0.5],[1,0.5]];portConstraint=eastwest;fontSize=12;whiteSpace=wrap;html=1;" parent="2cgwsK3_psXN7KSWmYCk-193" vertex="1">
          <mxGeometry y="56" width="160" height="30" as="geometry" />
        </mxCell>
        <mxCell id="2cgwsK3_psXN7KSWmYCk-196" value="cp" style="text;strokeColor=none;fillColor=none;spacingLeft=4;spacingRight=4;overflow=hidden;rotatable=0;points=[[0,0.5],[1,0.5]];portConstraint=eastwest;fontSize=12;whiteSpace=wrap;html=1;" parent="2cgwsK3_psXN7KSWmYCk-193" vertex="1">
          <mxGeometry y="86" width="160" height="30" as="geometry" />
        </mxCell>
        <mxCell id="2cgwsK3_psXN7KSWmYCk-197" value="street" style="text;strokeColor=none;fillColor=none;spacingLeft=4;spacingRight=4;overflow=hidden;rotatable=0;points=[[0,0.5],[1,0.5]];portConstraint=eastwest;fontSize=12;whiteSpace=wrap;html=1;" parent="2cgwsK3_psXN7KSWmYCk-193" vertex="1">
          <mxGeometry y="116" width="160" height="30" as="geometry" />
        </mxCell>
        <mxCell id="2cgwsK3_psXN7KSWmYCk-198" value="userID" style="text;strokeColor=none;fillColor=none;spacingLeft=4;spacingRight=4;overflow=hidden;rotatable=0;points=[[0,0.5],[1,0.5]];portConstraint=eastwest;fontSize=12;whiteSpace=wrap;html=1;" parent="2cgwsK3_psXN7KSWmYCk-193" vertex="1">
          <mxGeometry y="146" width="160" height="30" as="geometry" />
        </mxCell>
        <mxCell id="2cgwsK3_psXN7KSWmYCk-199" value="addressAlias" style="text;strokeColor=none;fillColor=none;spacingLeft=4;spacingRight=4;overflow=hidden;rotatable=0;points=[[0,0.5],[1,0.5]];portConstraint=eastwest;fontSize=12;whiteSpace=wrap;html=1;" parent="2cgwsK3_psXN7KSWmYCk-193" vertex="1">
          <mxGeometry y="176" width="160" height="30" as="geometry" />
        </mxCell>
        <mxCell id="2cgwsK3_psXN7KSWmYCk-203" value="&lt;b&gt;&lt;font style=&quot;font-size: 18px;&quot;&gt;Payment&lt;/font&gt;&lt;/b&gt;" style="text;strokeColor=none;fillColor=none;spacingLeft=4;spacingRight=4;overflow=hidden;rotatable=0;points=[[0,0.5],[1,0.5]];portConstraint=eastwest;fontSize=12;whiteSpace=wrap;html=1;" parent="1" vertex="1">
          <mxGeometry x="1348" y="15" width="90" height="40" as="geometry" />
        </mxCell>
        <mxCell id="2cgwsK3_psXN7KSWmYCk-289" value="orderdetail" style="swimlane;fontStyle=0;childLayout=stackLayout;horizontal=1;startSize=26;horizontalStack=0;resizeParent=1;resizeParentMax=0;resizeLast=0;collapsible=1;marginBottom=0;align=center;fontSize=14;" parent="1" vertex="1">
          <mxGeometry x="1820" y="90" width="160" height="146" as="geometry" />
        </mxCell>
        <mxCell id="2cgwsK3_psXN7KSWmYCk-290" value="id" style="text;strokeColor=none;fillColor=none;spacingLeft=4;spacingRight=4;overflow=hidden;rotatable=0;points=[[0,0.5],[1,0.5]];portConstraint=eastwest;fontSize=12;whiteSpace=wrap;html=1;" parent="2cgwsK3_psXN7KSWmYCk-289" vertex="1">
          <mxGeometry y="26" width="160" height="30" as="geometry" />
        </mxCell>
        <mxCell id="2cgwsK3_psXN7KSWmYCk-291" value="productId" style="text;strokeColor=none;fillColor=none;spacingLeft=4;spacingRight=4;overflow=hidden;rotatable=0;points=[[0,0.5],[1,0.5]];portConstraint=eastwest;fontSize=12;whiteSpace=wrap;html=1;" parent="2cgwsK3_psXN7KSWmYCk-289" vertex="1">
          <mxGeometry y="56" width="160" height="30" as="geometry" />
        </mxCell>
        <mxCell id="2cgwsK3_psXN7KSWmYCk-292" value="quantity" style="text;strokeColor=none;fillColor=none;spacingLeft=4;spacingRight=4;overflow=hidden;rotatable=0;points=[[0,0.5],[1,0.5]];portConstraint=eastwest;fontSize=12;whiteSpace=wrap;html=1;" parent="2cgwsK3_psXN7KSWmYCk-289" vertex="1">
          <mxGeometry y="86" width="160" height="30" as="geometry" />
        </mxCell>
        <mxCell id="2cgwsK3_psXN7KSWmYCk-293" value="orderId" style="text;strokeColor=none;fillColor=none;spacingLeft=4;spacingRight=4;overflow=hidden;rotatable=0;points=[[0,0.5],[1,0.5]];portConstraint=eastwest;fontSize=12;whiteSpace=wrap;html=1;" parent="2cgwsK3_psXN7KSWmYCk-289" vertex="1">
          <mxGeometry y="116" width="160" height="30" as="geometry" />
        </mxCell>
        <mxCell id="2cgwsK3_psXN7KSWmYCk-294" value="order" style="swimlane;fontStyle=0;childLayout=stackLayout;horizontal=1;startSize=26;horizontalStack=0;resizeParent=1;resizeParentMax=0;resizeLast=0;collapsible=1;marginBottom=0;align=center;fontSize=14;" parent="1" vertex="1">
          <mxGeometry x="1600" y="90" width="160" height="176" as="geometry" />
        </mxCell>
        <mxCell id="2cgwsK3_psXN7KSWmYCk-295" value="id" style="text;strokeColor=none;fillColor=none;spacingLeft=4;spacingRight=4;overflow=hidden;rotatable=0;points=[[0,0.5],[1,0.5]];portConstraint=eastwest;fontSize=12;whiteSpace=wrap;html=1;" parent="2cgwsK3_psXN7KSWmYCk-294" vertex="1">
          <mxGeometry y="26" width="160" height="30" as="geometry" />
        </mxCell>
        <mxCell id="2cgwsK3_psXN7KSWmYCk-296" value="userId" style="text;strokeColor=none;fillColor=none;spacingLeft=4;spacingRight=4;overflow=hidden;rotatable=0;points=[[0,0.5],[1,0.5]];portConstraint=eastwest;fontSize=12;whiteSpace=wrap;html=1;" parent="2cgwsK3_psXN7KSWmYCk-294" vertex="1">
          <mxGeometry y="56" width="160" height="30" as="geometry" />
        </mxCell>
        <mxCell id="2cgwsK3_psXN7KSWmYCk-297" value="creationDate" style="text;strokeColor=none;fillColor=none;spacingLeft=4;spacingRight=4;overflow=hidden;rotatable=0;points=[[0,0.5],[1,0.5]];portConstraint=eastwest;fontSize=12;whiteSpace=wrap;html=1;" parent="2cgwsK3_psXN7KSWmYCk-294" vertex="1">
          <mxGeometry y="86" width="160" height="30" as="geometry" />
        </mxCell>
        <mxCell id="2cgwsK3_psXN7KSWmYCk-298" value="updateDate" style="text;strokeColor=none;fillColor=none;spacingLeft=4;spacingRight=4;overflow=hidden;rotatable=0;points=[[0,0.5],[1,0.5]];portConstraint=eastwest;fontSize=12;whiteSpace=wrap;html=1;" parent="2cgwsK3_psXN7KSWmYCk-294" vertex="1">
          <mxGeometry y="116" width="160" height="30" as="geometry" />
        </mxCell>
        <mxCell id="2cgwsK3_psXN7KSWmYCk-299" value="state" style="text;strokeColor=none;fillColor=none;spacingLeft=4;spacingRight=4;overflow=hidden;rotatable=0;points=[[0,0.5],[1,0.5]];portConstraint=eastwest;fontSize=12;whiteSpace=wrap;html=1;" parent="2cgwsK3_psXN7KSWmYCk-294" vertex="1">
          <mxGeometry y="146" width="160" height="30" as="geometry" />
        </mxCell>
        <mxCell id="2cgwsK3_psXN7KSWmYCk-304" value="" style="edgeStyle=entityRelationEdgeStyle;fontSize=12;html=1;endArrow=ERoneToMany;startArrow=ERmandOne;rounded=0;exitX=1;exitY=0.5;exitDx=0;exitDy=0;entryX=0;entryY=0.5;entryDx=0;entryDy=0;" parent="1" source="2cgwsK3_psXN7KSWmYCk-295" target="2cgwsK3_psXN7KSWmYCk-293" edge="1">
          <mxGeometry width="100" height="100" relative="1" as="geometry">
            <mxPoint x="1870" y="260" as="sourcePoint" />
            <mxPoint x="1970" y="160" as="targetPoint" />
          </mxGeometry>
        </mxCell>
        <mxCell id="a-kXH_K3RjAkUMLSDjY3-30" value="" style="edgeStyle=orthogonalEdgeStyle;fontSize=12;html=1;endArrow=ERzeroToOne;startArrow=ERmandOne;rounded=0;exitX=0;exitY=0.5;exitDx=0;exitDy=0;entryX=1;entryY=0.5;entryDx=0;entryDy=0;" parent="1" source="2cgwsK3_psXN7KSWmYCk-295" target="2cgwsK3_psXN7KSWmYCk-181" edge="1">
          <mxGeometry width="100" height="100" relative="1" as="geometry">
            <mxPoint x="1700" y="430" as="sourcePoint" />
            <mxPoint x="1800" y="330" as="targetPoint" />
          </mxGeometry>
        </mxCell>
      </root>
    </mxGraphModel>
  </diagram>
</mxfile>
